<?xml version="1.0" encoding="utf-8"?>
<!-- Generator: Adobe Illustrator 26.0.3, SVG Export Plug-In . SVG Version: 6.00 Build 0)  -->
<svg version="1.1" xmlns="http://www.w3.org/2000/svg" xmlns:xlink="http://www.w3.org/1999/xlink" x="0px" y="0px"
	 viewBox="0 0 240 160" style="enable-background:new 0 0 240 160;" xml:space="preserve">
<g id="Layer_1">
</g>
<g id="Layer_2">
	<g>
		<path d="M16.7,137c8,8.4,17.9,12.4,29.2,13.6c12.9,1.3,25.3-0.1,36.8-7c23.1-13.8,26.6-50.1,3.7-66.4c-1.3-0.9-2.5-1.9-3.2-2.4
			c3.3-3.4,7-6.3,9.6-9.9c10-14.3,5.4-36.9-10.1-47c-17.8-11.5-36.7-11.7-55-1.8C4.4,28.6,3.4,62.3,24.9,74.4
			c-1.5,1.1-2.7,2-3.9,2.9C0.2,92.9,2.3,122,16.7,137z M53.6,33.4c10.1,0,16.7,6.5,16.7,16.7c0,9.7-6.5,15.9-16.7,15.9
			c-10.1,0-16.6-6.3-16.6-16C36.9,40.4,43.9,33.5,53.6,33.4z M54,87c11.5,0.1,19.8,8.9,19.8,20.9c-0.1,11.6-8.7,20.2-20.2,20.1
			c-11.6-0.1-20-8.8-19.9-20.7C33.8,95.4,42.3,86.9,54,87z"/>
		<path d="M137.7,144c0-14.6,0-29.2,0-43.7c0-1.1,0-2.7,0.7-3.4c3.5-3.4,7.3-6.7,11-10c16.1,19.9,31.9,39.5,47.6,59.1
			c1.4,1.8,2.8,2.6,5.2,2.6c7.4-0.1,14.8-0.1,22.2-0.1c3.1,0,6.2,0,10,0c-22.2-26.6-43.9-52.6-65.6-78.6
			c21.4-19.2,42.7-38.3,64.7-57.9c-13.4,0-25.7,0-38,0.1c-1,0-2.2,0.7-3,1.5C177,28.2,161.7,43.1,146.3,58c-2.6,2.5-5.3,4.9-8.6,8
			c0-18.7,0-36.4,0-54c-9.4,0-18.4,0-27.5,0c0,45.4,0,90.6,0,136.1c9.3,0,18.4,0,27.7,0C137.7,146.6,137.7,145.3,137.7,144z"/>
	</g>
</g>
</svg>
