<?xml version="1.0" standalone="no"?>
<!DOCTYPE svg PUBLIC "-//W3C//DTD SVG 20010904//EN"
 "http://www.w3.org/TR/2001/REC-SVG-20010904/DTD/svg10.dtd">
<svg version="1.0" xmlns="http://www.w3.org/2000/svg"
 width="142.000000pt" height="142.000000pt" viewBox="0 0 142.000000 142.000000"
 preserveAspectRatio="xMidYMid meet">
<metadata>
Created by potrace 1.14, written by Peter Selinger 2001-2017
</metadata>
<g transform="translate(0.000000,142.000000) scale(0.100000,-0.100000)"
fill="#000000" stroke="none">
<path d="M33 1408 c0 -7 -6 -39 -12 -71 -24 -113 -5 -283 45 -402 26 -62 96
-165 150 -219 82 -82 227 -166 314 -183 38 -7 36 -11 -19 -27 -212 -63 -390
-234 -462 -443 -10 -29 -17 -53 -16 -54 1 0 90 -1 199 -1 l196 -1 33 38 c30
34 113 95 115 84 0 -2 7 1 15 7 17 15 91 27 144 25 56 -2 126 -27 175 -62 l41
-30 131 131 c128 127 131 131 112 148 -77 70 -164 120 -273 157 l-65 22 40 7
c56 11 129 43 204 91 193 124 312 338 319 573 l2 72 -356 0 -355 0 1 -125 c2
-120 2 -125 23 -126 11 -1 72 -1 135 -1 l113 1 -18 -22 c-48 -56 -118 -95
-194 -109 -147 -25 -289 51 -357 192 -22 46 -27 69 -27 137 0 70 4 89 30 142
l31 61 -207 0 c-159 0 -207 -3 -207 -12z"/>
</g>
</svg>
